<?xml version="1.0" encoding="UTF-8"?><svg id="Layer_1" xmlns="http://www.w3.org/2000/svg" viewBox="0 0 340 180"><defs><style>.cls-1{fill:#fff;}.cls-2{fill:#cb5b28;}</style></defs><polygon class="cls-2" points="140.89 30.44 161.9 15.51 161.9 80 140.89 94.4 140.89 30.44"/><polyline class="cls-2" points="142.1 96.32 162.92 81.32 202.83 81.32 182.92 96.32"/><path class="cls-1" d="m105.84,112.01h5.45v19.82h12.36v4.96h-17.81v-24.78Z"/><path class="cls-1" d="m139.33,124.47v-.07c0-7.04,5.56-12.81,13.21-12.81s13.13,5.7,13.13,12.74v.07c0,7.04-5.56,12.81-13.2,12.81s-13.13-5.7-13.13-12.74Zm20.64,0v-.07c0-4.25-3.12-7.79-7.5-7.79s-7.43,3.47-7.43,7.72v.07c0,4.25,3.12,7.79,7.51,7.79s7.43-3.47,7.43-7.72Z"/><path class="cls-1" d="m183.2,112.01h18.87v4.96h-13.42v5.27h11.82v4.96h-11.82v9.59h-5.45v-24.78Z"/><path class="cls-1" d="m224.87,117.04h-7.54v-5.03h20.53v5.03h-7.54v19.75h-5.45v-19.75Z"/><path class="cls-1" d="m21.27,153.36h8.04v1.15h-6.79v3.8h6.07v1.15h-6.07v3.9h6.87v1.14h-8.12v-11.13Z"/><path class="cls-1" d="m45.42,153.36h1.18l7.01,8.92v-8.92h1.22v11.13h-1l-7.19-9.13v9.13h-1.22v-11.13Z"/><path class="cls-1" d="m74.38,154.52h-3.75v-1.16h8.76v1.16h-3.75v9.97h-1.26v-9.97Z"/><path class="cls-1" d="m95.19,153.36h8.04v1.15h-6.79v3.8h6.07v1.15h-6.07v3.9h6.87v1.14h-8.12v-11.13Z"/><path class="cls-1" d="m119.34,153.36h4.79c1.38,0,2.46.41,3.16,1.11.56.56.86,1.3.86,2.19v.03c0,1.84-1.27,2.94-3.02,3.24l3.42,4.55h-1.54l-3.23-4.32h-3.18v4.32h-1.26v-11.13Zm4.67,5.68c1.65,0,2.86-.86,2.86-2.29v-.03c0-1.38-1.05-2.19-2.85-2.19h-3.43v4.52h3.42Z"/><path class="cls-1" d="m147.17,154.52h-3.75v-1.16h8.76v1.16h-3.75v9.97h-1.26v-9.97Z"/><path class="cls-1" d="m170.73,153.28h1.18l5.07,11.21h-1.35l-1.3-2.94h-6.06l-1.32,2.94h-1.29l5.07-11.21Zm3.1,7.14l-2.53-5.68-2.54,5.68h5.07Z"/><path class="cls-1" d="m192.79,153.36h1.26v11.13h-1.26v-11.13Z"/><path class="cls-1" d="m210.81,153.36h1.18l7.01,8.92v-8.92h1.22v11.13h-1l-7.19-9.13v9.13h-1.22v-11.13Z"/><path class="cls-1" d="m236.88,153.36h1.27l4.05,6.07,4.05-6.07h1.27v11.13h-1.26v-9.02l-4.05,5.96h-.06l-4.05-5.95v9h-1.22v-11.13Z"/><path class="cls-1" d="m264.18,153.36h8.04v1.15h-6.79v3.8h6.07v1.15h-6.07v3.9h6.87v1.14h-8.12v-11.13Z"/><path class="cls-1" d="m288.34,153.36h1.18l7.01,8.92v-8.92h1.22v11.13h-1l-7.19-9.13v9.13h-1.22v-11.13Z"/><path class="cls-1" d="m317.3,154.52h-3.75v-1.16h8.76v1.16h-3.75v9.97h-1.26v-9.97Z"/></svg>